<svg xmlns="http://www.w3.org/2000/svg" width="100%" viewBox="0 0 1210 640" role="img">
  <title>Aura Luxury Properties OG Image</title>
  <desc>Elevated Living &amp; Premium Real Estate Investments — Aura Luxury Properties brand banner</desc>

  <defs>
    <linearGradient id="fadeRight" x1="0" y1="0" x2="1" y2="0">
      <stop offset="0%" stop-color="#03180e" stop-opacity="0"/>
      <stop offset="100%" stop-color="#03180e" stop-opacity="0.9"/>
    </linearGradient>
    <linearGradient id="bgGrad" x1="0" y1="0" x2="1" y2="1">
      <stop offset="0%" stop-color="#03180e"/>
      <stop offset="100%" stop-color="#062315"/>
    </linearGradient>
    <linearGradient id="accentGlow" x1="0" y1="0" x2="0" y2="1">
      <stop offset="0%" stop-color="#059669" stop-opacity="0.2"/>
      <stop offset="100%" stop-color="#059669" stop-opacity="0"/>
    </linearGradient>
  </defs>

  <!-- Background -->
  <rect width="1200" height="630" fill="url(#bgGrad)"/>

  <!-- Subtle emerald glow top-left -->
  <ellipse cx="200" cy="180" rx="400" ry="260" fill="#059669" opacity="0.08"/>

  <!-- Grid lines — blueprint feel -->
  <line x1="0" y1="210" x2="1200" y2="210" stroke="#34d399" stroke-width="0.4" opacity="0.12"/>
  <line x1="0" y1="420" x2="1200" y2="420" stroke="#34d399" stroke-width="0.4" opacity="0.12"/>
  <line x1="300" y1="0" x2="300" y2="630" stroke="#34d399" stroke-width="0.4" opacity="0.12"/>
  <line x1="600" y1="0" x2="600" y2="630" stroke="#34d399" stroke-width="0.4" opacity="0.12"/>
  <line x1="900" y1="0" x2="900" y2="630" stroke="#34d399" stroke-width="0.4" opacity="0.12"/>

  <!-- Right architectural panel -->
  <rect x="760" y="0" width="440" height="630" fill="#042315" opacity="0.5"/>

  <!-- Tower 1 -->
  <rect x="800" y="130" width="80" height="500" fill="#062315"/>
  <rect x="812" y="150" width="10" height="28" fill="#34d399" opacity="0.25"/>
  <rect x="830" y="150" width="10" height="28" fill="#34d399" opacity="0.15"/>
  <rect x="848" y="150" width="10" height="28" fill="#34d399" opacity="0.25"/>
  <rect x="812" y="196" width="10" height="28" fill="#34d399" opacity="0.15"/>
  <rect x="830" y="196" width="10" height="28" fill="#059669" opacity="0.4"/>
  <rect x="848" y="196" width="10" height="28" fill="#34d399" opacity="0.15"/>

  <!-- Tower 2 (tallest) -->
  <rect x="900" y="55" width="105" height="575" fill="#09331e"/>
  <rect x="913" y="75" width="13" height="34" fill="#059669" opacity="0.4"/>
  <rect x="934" y="75" width="13" height="34" fill="#34d399" opacity="0.2"/>
  <rect x="955" y="75" width="13" height="34" fill="#059669" opacity="0.4"/>

  <!-- Tower 3 -->
  <rect x="1025" y="190" width="72" height="440" fill="#062315"/>
  <rect x="1037" y="210" width="11" height="27" fill="#34d399" opacity="0.3"/>
  <rect x="1056" y="210" width="11" height="27" fill="#059669" opacity="0.35"/>

  <!-- Fade overlay blending buildings into left -->
  <rect x="680" y="0" width="180" height="630" fill="url(#fadeRight)"/>

  <!-- Right edge fade -->
  <rect x="1120" y="0" width="80" height="630" fill="#03180e" opacity="0.6"/>

  <!-- ── LEFT CONTENT ── -->

  <!-- Top accent line -->
  <rect x="60" y="62" width="52" height="3" fill="#059669"/>

  <!-- Label -->
  <text x="60" y="108" font-family="'DM Sans', Arial, sans-serif" font-size="12" fill="#34d399" letter-spacing="4" font-weight="500">LUXURY REAL ESTATE</text>

  <!-- Company name -->
  <text x="58" y="202" font-family="'Cormorant Garamond', Georgia, serif" font-size="76" font-weight="700" fill="#ecfdf5" letter-spacing="-1">Aura</text>
  <text x="58" y="291" font-family="'Cormorant Garamond', Georgia, serif" font-size="76" font-weight="700" fill="#34d399" letter-spacing="-1">Luxury</text>
  <text x="58" y="380" font-family="'Cormorant Garamond', Georgia, serif" font-size="76" font-weight="700" fill="#ecfdf5" letter-spacing="-1">Properties</text>

  <!-- Divider -->
  <rect x="60" y="408" width="380" height="0.8" fill="#34d399" opacity="0.25"/>

  <!-- Tagline -->
  <text x="60" y="442" font-family="'DM Sans', Arial, sans-serif" font-size="17" fill="#a7f3d0" letter-spacing="0.5">Elevated Living &amp; Premium Real Estate Investments</text>

  <!-- Stats -->
  <text x="60" y="504" font-family="'Cormorant Garamond', Georgia, serif" font-size="30" font-weight="700" fill="#34d399">200+</text>
  <text x="60" y="528" font-family="'DM Sans', Arial, sans-serif" font-size="11" fill="#5eead4" letter-spacing="1.5">PROPERTIES SOLD</text>

  <rect x="188" y="482" width="0.8" height="54" fill="#34d399" opacity="0.2"/>

  <text x="208" y="504" font-family="'Cormorant Garamond', Georgia, serif" font-size="30" font-weight="700" fill="#34d399">12+</text>
  <text x="208" y="528" font-family="'DM Sans', Arial, sans-serif" font-size="11" fill="#5eead4" letter-spacing="1.5">YEARS EXPERIENCE</text>

  <rect x="348" y="482" width="0.8" height="54" fill="#34d399" opacity="0.2"/>

  <text x="368" y="504" font-family="'Cormorant Garamond', Georgia, serif" font-size="30" font-weight="700" fill="#34d399">500+</text>
  <text x="368" y="528" font-family="'DM Sans', Arial, sans-serif" font-size="11" fill="#5eead4" letter-spacing="1.5">HAPPY CLIENTS</text>

  <!-- Bottom accent -->
  <rect x="60" y="572" width="52" height="3" fill="#059669" opacity="0.6"/>

  <!-- URL -->
  <text x="60" y="603" font-family="'DM Sans', Arial, sans-serif" font-size="12" fill="#166534" letter-spacing="1">auraluxuryproperties.com</text>
</svg>